<svg width="622" height="93" viewBox="0 0 622 93" fill="none" xmlns="http://www.w3.org/2000/svg">
<path d="M84.3384 93.0003H64.3257L66.2485 90.0003H86.2114L84.3384 93.0003ZM134.392 93.0003H117.208V90.0003H134.392V93.0003ZM89.3345 85.0003H69.4526L71.3755 82.0003H91.2075L89.3345 85.0003ZM134.392 85.0003H117.208V82.0003H134.392V85.0003ZM49.0171 77.0003H9.17725C7.78412 76.2255 6.48551 75.2256 5.28076 74.0003H49.0171V77.0003ZM94.3296 77.0003H68.6519L67.2573 74.0003H96.2026L94.3296 77.0003ZM134.392 77.0003H117.208V74.0003H134.392V77.0003ZM169.264 74.0003C167.352 75.2258 165.289 76.2254 163.076 77.0003H141.688V74.0003H169.264ZM251.807 77.0003H205.407C203.282 76.2128 201.3 75.2123 199.458 74.0003H251.807V77.0003ZM275.833 77.0003H258.65V74.0003H275.833V77.0003ZM319.382 77.0003H302.199V74.0003H319.382V77.0003ZM384.473 77.0003H362.552C360.428 76.2129 358.446 75.2122 356.605 74.0003H384.473V77.0003ZM408.954 77.0003H391.769V74.0003H408.954V77.0003ZM431.98 77.0003H414.795V74.0003H431.98V77.0003ZM475.18 77.0003H457.996V74.0003H475.18V77.0003ZM517.996 77.0003H500.812V74.0003H517.996V77.0003ZM559.629 77.0003H542.65C540.525 76.2128 538.543 75.2124 536.702 74.0003H562.047L559.629 77.0003ZM49.0171 69.0003H1.67432C1.19647 68.028 0.822294 67.0282 0.55127 66.0003H49.0171V69.0003ZM99.3247 69.0003H64.9331L63.5386 66.0003H101.198L99.3247 69.0003ZM134.392 69.0003H117.208V66.0003H134.392V69.0003ZM177.546 66.0003C176.832 67.0345 176.036 68.0345 175.158 69.0003H141.688V66.0003H177.546ZM251.807 69.0003H193.687C192.824 68.0346 192.041 67.0357 191.34 66.0003H251.807V69.0003ZM275.833 69.0003H258.65V66.0003H275.833V69.0003ZM319.382 69.0003H302.199V66.0003H319.382V69.0003ZM384.473 69.0003H350.833C349.968 68.0338 349.184 67.0347 348.483 66.0003H384.473V69.0003ZM408.954 69.0003H391.769V66.0003H408.954V69.0003ZM431.98 69.0003H414.795V66.0003H431.98V69.0003ZM475.18 69.0003H457.996V66.0003H475.18V69.0003ZM517.996 69.0003H500.812V66.0003H517.996V69.0003ZM566.077 69.0003H530.93C530.067 68.0347 529.285 67.0355 528.584 66.0003H568.495L566.077 69.0003ZM18.2388 58.0003C18.9527 59.3696 20.0358 60.368 21.4868 61.0003H0.0170898V58.0003H18.2388ZM80.1216 61.0003H61.2144L59.8198 58.0003H78.6978L80.1216 61.0003ZM104.32 61.0003H82.4634L84.4409 58.0003H106.193L104.32 61.0003ZM134.392 61.0003H117.208V58.0003H134.392V61.0003ZM181.258 58.0003C180.983 59.0255 180.647 60.0252 180.251 61.0003H155.846C157.525 60.4404 158.982 59.593 160.216 58.4563C160.375 58.3075 160.526 58.1545 160.672 58.0003H181.258ZM208.425 58.0003C208.576 58.1545 208.732 58.3075 208.895 58.4563C210.129 59.5931 211.578 60.4404 213.241 61.0003H188.698C188.312 60.0256 187.986 59.0258 187.719 58.0003H208.425ZM275.833 61.0003H258.65V58.0003H275.833V61.0003ZM319.382 61.0003H302.199V58.0003H319.382V61.0003ZM365.572 58.0003C365.723 58.1545 365.878 58.3075 366.042 58.4563C367.275 59.5929 368.724 60.4404 370.386 61.0003H345.833C345.447 60.0252 345.122 59.0252 344.855 58.0003H365.572ZM408.954 61.0003H391.769V58.0003H408.954V61.0003ZM431.98 61.0003H414.795V58.0003H431.98V61.0003ZM475.18 61.0003H457.996V58.0003H475.18V61.0003ZM517.996 61.0003H500.812V58.0003H517.996V61.0003ZM545.669 58.0003C545.82 58.1544 545.976 58.3076 546.139 58.4563C547.373 59.5929 548.821 60.4404 550.484 61.0003H525.941C525.556 60.0256 525.23 59.0256 524.963 58.0003H545.669ZM17.2007 22.8401H38.8013V40.2161H17.2007V53.0003H0.0170898V5.55984H17.2007V22.8401ZM76.3237 53.0003H57.4956L43.5659 23.0325H62.0942L76.3237 53.0003ZM91.1821 22.8401C98.158 22.8402 103.566 24.6965 107.406 28.4085C110.862 31.7364 112.59 35.9922 112.59 41.1761C112.59 45.3402 111.501 49.2815 109.324 53.0003H87.7368L89.646 50.1048C91.246 48.0568 92.0454 46.2004 92.0454 44.5364C92.0454 43.1925 91.438 42.1364 90.2222 41.3684C89.0702 40.6005 87.4059 40.2161 85.23 40.2161H73.8062V23.0325L91.1821 22.8401ZM150.329 22.8401C160.504 22.8402 168.505 25.7208 174.329 31.4807C179.576 36.6647 182.201 43.0324 182.201 50.5843C182.201 51.4026 182.167 52.2078 182.105 53.0003H163.217C163.327 52.3798 163.384 51.735 163.384 51.0647C163.384 48.1208 162.296 45.6244 160.121 43.5764C157.753 41.3365 154.488 40.2161 150.329 40.2161H134.392V53.0003H117.208V22.8401H150.329ZM251.807 40.2161L241.511 53.0003H224.156L234.624 40.2161H218.687C214.527 40.2161 211.295 41.3048 208.991 43.4807C206.751 45.5927 205.631 48.1209 205.631 51.0647C205.631 51.735 205.69 52.3798 205.803 53.0003H186.901C186.845 52.239 186.815 51.4654 186.815 50.68C186.815 43.0643 189.471 36.6646 194.783 31.4807C200.671 25.7208 208.639 22.8401 218.687 22.8401H251.807V40.2161ZM608.017 17.5003H283.129C280.89 17.5003 279.097 18.172 277.753 19.5159C276.473 20.7959 275.834 22.5562 275.833 24.7962V35.8001H297.434V52.9846H275.833V53.0003H258.65V17.5003C258.65 13.1483 260.442 9.17998 264.026 5.59598C267.61 2.01219 271.546 0.220027 275.833 0.220001H621.983L608.017 17.5003ZM339.734 40.2161H328.214C325.718 40.2161 323.606 40.9522 321.878 42.4241C320.214 43.8961 319.382 46.0082 319.382 48.76V53.0003H302.199V44.4407C302.199 38.4887 304.215 33.4001 308.247 29.1761C312.279 24.9522 317.462 22.8401 323.798 22.8401H339.734V40.2161ZM408.954 53.0003H391.769V40.2161H375.833C371.673 40.2161 368.441 41.3047 366.137 43.4807C363.897 45.5927 362.778 48.1209 362.778 51.0647C362.778 51.735 362.837 52.3798 362.95 53.0003H344.042C343.989 52.27 343.961 51.5288 343.961 50.7766C343.961 43.2246 346.617 36.8561 351.929 31.6721C357.817 25.9122 365.785 23.0325 375.833 23.0325H408.954V53.0003ZM452.332 22.8401C459.116 22.8401 464.556 24.9847 468.652 29.2727C473.004 33.8167 475.18 40.3123 475.18 48.76V53.0003H457.996V48.76C457.996 46.7202 457.18 44.8769 455.549 43.2307L454.874 42.5784C453.175 41.0037 451.336 40.2161 449.356 40.2161H431.98V53.0003H414.795V22.8401H452.332ZM495.148 22.8401C501.932 22.8401 507.372 24.9848 511.468 29.2727C515.82 33.8167 517.996 40.3124 517.996 48.76V53.0003H500.812V48.76C500.812 46.5842 499.884 44.6325 498.028 42.9046C496.236 41.1126 494.283 40.2161 492.171 40.2161H474.795V22.8401H495.148ZM589.051 40.2161L578.755 53.0003H561.4L571.867 40.2161H555.931C551.771 40.2161 548.539 41.3047 546.235 43.4807C543.995 45.5927 542.875 48.1208 542.875 51.0647C542.875 51.735 542.935 52.3798 543.047 53.0003H524.145C524.089 52.2389 524.059 51.4654 524.059 50.68C524.059 43.0642 526.715 36.6646 532.027 31.4807C537.915 25.7207 545.883 22.8401 555.931 22.8401H589.051V40.2161Z" fill="white"/>
</svg>
